<mxfile host="app.diagrams.net" modified="2020-12-28T02:41:28.563Z" agent="5.0 (Macintosh; Intel Mac OS X 10_15_6) AppleWebKit/537.36 (KHTML, like Gecko) Chrome/86.0.4240.198 Safari/537.36" etag="82WdRBkHRLo0py5NoFmT" version="14.1.2" type="github" pages="6">
  <diagram id="vLMfi94v3S2-ffmUgMjZ" name="Page-1">
    <mxGraphModel dx="912" dy="489" grid="1" gridSize="10" guides="1" tooltips="1" connect="1" arrows="1" fold="1" page="1" pageScale="1" pageWidth="827" pageHeight="1169" math="0" shadow="0">
      <root>
        <mxCell id="0" />
        <mxCell id="1" parent="0" />
        <mxCell id="CVf682A1SfkwsWrIBAP_-1" value="FluidFamilyCore" style="swimlane;fontStyle=1;align=center;verticalAlign=top;childLayout=stackLayout;horizontal=1;startSize=26;horizontalStack=0;resizeParent=1;resizeParentMax=0;resizeLast=0;collapsible=1;marginBottom=0;" parent="1" vertex="1">
          <mxGeometry x="190" y="150" width="240" height="130" as="geometry" />
        </mxCell>
        <mxCell id="CVf682A1SfkwsWrIBAP_-2" value="- _core: unique_ptr&lt;PaddlePredictor&gt;" style="text;strokeColor=none;fillColor=none;align=left;verticalAlign=top;spacingLeft=4;spacingRight=4;overflow=hidden;rotatable=0;points=[[0,0.5],[1,0.5]];portConstraint=eastwest;" parent="CVf682A1SfkwsWrIBAP_-1" vertex="1">
          <mxGeometry y="26" width="240" height="26" as="geometry" />
        </mxCell>
        <mxCell id="CVf682A1SfkwsWrIBAP_-3" value="" style="line;strokeWidth=1;fillColor=none;align=left;verticalAlign=middle;spacingTop=-1;spacingLeft=3;spacingRight=3;rotatable=0;labelPosition=right;points=[];portConstraint=eastwest;" parent="CVf682A1SfkwsWrIBAP_-1" vertex="1">
          <mxGeometry y="52" width="240" height="8" as="geometry" />
        </mxCell>
        <mxCell id="CVf682A1SfkwsWrIBAP_-4" value="+ get(): void*&#xa;+ Run(const void* in, const void* out): bool&#xa;+ create(Params&amp; param): int&#xa;+ clone(void* origin): int" style="text;strokeColor=none;fillColor=none;align=left;verticalAlign=top;spacingLeft=4;spacingRight=4;overflow=hidden;rotatable=0;points=[[0,0.5],[1,0.5]];portConstraint=eastwest;" parent="CVf682A1SfkwsWrIBAP_-1" vertex="1">
          <mxGeometry y="60" width="240" height="70" as="geometry" />
        </mxCell>
        <mxCell id="CVf682A1SfkwsWrIBAP_-9" value="FluidGpuNativeCore" style="swimlane;fontStyle=1;align=center;verticalAlign=top;childLayout=stackLayout;horizontal=1;startSize=26;horizontalStack=0;resizeParent=1;resizeParentMax=0;resizeLast=0;collapsible=1;marginBottom=0;" parent="1" vertex="1">
          <mxGeometry x="10" y="290" width="170" height="50" as="geometry" />
        </mxCell>
        <mxCell id="CVf682A1SfkwsWrIBAP_-10" value="+ create(Params&amp; param): int" style="text;strokeColor=none;fillColor=none;align=left;verticalAlign=top;spacingLeft=4;spacingRight=4;overflow=hidden;rotatable=0;points=[[0,0.5],[1,0.5]];portConstraint=eastwest;" parent="CVf682A1SfkwsWrIBAP_-9" vertex="1">
          <mxGeometry y="26" width="170" height="24" as="geometry" />
        </mxCell>
        <mxCell id="CVf682A1SfkwsWrIBAP_-13" value="FluidGpuAnalysisDirCore" style="swimlane;fontStyle=1;align=center;verticalAlign=top;childLayout=stackLayout;horizontal=1;startSize=26;horizontalStack=0;resizeParent=1;resizeParentMax=0;resizeLast=0;collapsible=1;marginBottom=0;" parent="1" vertex="1">
          <mxGeometry x="470" y="350" width="170" height="50" as="geometry" />
        </mxCell>
        <mxCell id="CVf682A1SfkwsWrIBAP_-14" value="+ create(Params&amp; param): int" style="text;strokeColor=none;fillColor=none;align=left;verticalAlign=top;spacingLeft=4;spacingRight=4;overflow=hidden;rotatable=0;points=[[0,0.5],[1,0.5]];portConstraint=eastwest;" parent="CVf682A1SfkwsWrIBAP_-13" vertex="1">
          <mxGeometry y="26" width="170" height="24" as="geometry" />
        </mxCell>
        <mxCell id="CVf682A1SfkwsWrIBAP_-17" value="FluidGpuNativeDirCore" style="swimlane;fontStyle=1;align=center;verticalAlign=top;childLayout=stackLayout;horizontal=1;startSize=26;horizontalStack=0;resizeParent=1;resizeParentMax=0;resizeLast=0;collapsible=1;marginBottom=0;" parent="1" vertex="1">
          <mxGeometry x="10" y="370" width="170" height="52" as="geometry" />
        </mxCell>
        <mxCell id="CVf682A1SfkwsWrIBAP_-18" value="+ create(Params&amp; param): int" style="text;strokeColor=none;fillColor=none;align=left;verticalAlign=top;spacingLeft=4;spacingRight=4;overflow=hidden;rotatable=0;points=[[0,0.5],[1,0.5]];portConstraint=eastwest;" parent="CVf682A1SfkwsWrIBAP_-17" vertex="1">
          <mxGeometry y="26" width="170" height="26" as="geometry" />
        </mxCell>
        <mxCell id="CVf682A1SfkwsWrIBAP_-21" value="FluidGpuWithSigmoidCore" style="swimlane;fontStyle=1;align=center;verticalAlign=top;childLayout=stackLayout;horizontal=1;startSize=26;horizontalStack=0;resizeParent=1;resizeParentMax=0;resizeLast=0;collapsible=1;marginBottom=0;" parent="1" vertex="1">
          <mxGeometry x="194" y="422" width="250" height="150" as="geometry" />
        </mxCell>
        <mxCell id="CVf682A1SfkwsWrIBAP_-22" value="- _core: unique_ptr&lt;SigmoidFluidModel&gt;Â " style="text;strokeColor=none;fillColor=none;align=left;verticalAlign=top;spacingLeft=4;spacingRight=4;overflow=hidden;rotatable=0;points=[[0,0.5],[1,0.5]];portConstraint=eastwest;" parent="CVf682A1SfkwsWrIBAP_-21" vertex="1">
          <mxGeometry y="26" width="250" height="26" as="geometry" />
        </mxCell>
        <mxCell id="CVf682A1SfkwsWrIBAP_-23" value="" style="line;strokeWidth=1;fillColor=none;align=left;verticalAlign=middle;spacingTop=-1;spacingLeft=3;spacingRight=3;rotatable=0;labelPosition=right;points=[];portConstraint=eastwest;" parent="CVf682A1SfkwsWrIBAP_-21" vertex="1">
          <mxGeometry y="52" width="250" height="8" as="geometry" />
        </mxCell>
        <mxCell id="CVf682A1SfkwsWrIBAP_-24" value="+ create(Params&amp; param): int&#xa;+ Run(const void* in, const void* out): bool&#xa;+ clone(SigmoidFluidModel* origin): int&#xa;+ get(): SigmoidFluidModel*&#xa;+ load_fluid_mode(Params&amp; param): int&#xa;+ softmax(float x, double&amp; o): int" style="text;strokeColor=none;fillColor=none;align=left;verticalAlign=top;spacingLeft=4;spacingRight=4;overflow=hidden;rotatable=0;points=[[0,0.5],[1,0.5]];portConstraint=eastwest;" parent="CVf682A1SfkwsWrIBAP_-21" vertex="1">
          <mxGeometry y="60" width="250" height="90" as="geometry" />
        </mxCell>
        <mxCell id="CVf682A1SfkwsWrIBAP_-25" value="FluidGpuNativeDirWithSigmoidCore" style="swimlane;fontStyle=1;align=center;verticalAlign=top;childLayout=stackLayout;horizontal=1;startSize=26;horizontalStack=0;resizeParent=1;resizeParentMax=0;resizeLast=0;collapsible=1;marginBottom=0;" parent="1" vertex="1">
          <mxGeometry x="450" y="660" width="210" height="86" as="geometry" />
        </mxCell>
        <mxCell id="CVf682A1SfkwsWrIBAP_-26" value="+ field: type" style="text;strokeColor=none;fillColor=none;align=left;verticalAlign=top;spacingLeft=4;spacingRight=4;overflow=hidden;rotatable=0;points=[[0,0.5],[1,0.5]];portConstraint=eastwest;" parent="CVf682A1SfkwsWrIBAP_-25" vertex="1">
          <mxGeometry y="26" width="210" height="26" as="geometry" />
        </mxCell>
        <mxCell id="CVf682A1SfkwsWrIBAP_-27" value="" style="line;strokeWidth=1;fillColor=none;align=left;verticalAlign=middle;spacingTop=-1;spacingLeft=3;spacingRight=3;rotatable=0;labelPosition=right;points=[];portConstraint=eastwest;" parent="CVf682A1SfkwsWrIBAP_-25" vertex="1">
          <mxGeometry y="52" width="210" height="8" as="geometry" />
        </mxCell>
        <mxCell id="CVf682A1SfkwsWrIBAP_-28" value="+ method(type): type" style="text;strokeColor=none;fillColor=none;align=left;verticalAlign=top;spacingLeft=4;spacingRight=4;overflow=hidden;rotatable=0;points=[[0,0.5],[1,0.5]];portConstraint=eastwest;" parent="CVf682A1SfkwsWrIBAP_-25" vertex="1">
          <mxGeometry y="60" width="210" height="26" as="geometry" />
        </mxCell>
        <mxCell id="CVf682A1SfkwsWrIBAP_-29" value="FluidGpuAnalysisDirWithSigmoidCore" style="swimlane;fontStyle=1;align=center;verticalAlign=top;childLayout=stackLayout;horizontal=1;startSize=26;horizontalStack=0;resizeParent=1;resizeParentMax=0;resizeLast=0;collapsible=1;marginBottom=0;" parent="1" vertex="1">
          <mxGeometry x="450" y="770" width="220" height="86" as="geometry" />
        </mxCell>
        <mxCell id="CVf682A1SfkwsWrIBAP_-30" value="+ field: type" style="text;strokeColor=none;fillColor=none;align=left;verticalAlign=top;spacingLeft=4;spacingRight=4;overflow=hidden;rotatable=0;points=[[0,0.5],[1,0.5]];portConstraint=eastwest;" parent="CVf682A1SfkwsWrIBAP_-29" vertex="1">
          <mxGeometry y="26" width="220" height="26" as="geometry" />
        </mxCell>
        <mxCell id="CVf682A1SfkwsWrIBAP_-31" value="" style="line;strokeWidth=1;fillColor=none;align=left;verticalAlign=middle;spacingTop=-1;spacingLeft=3;spacingRight=3;rotatable=0;labelPosition=right;points=[];portConstraint=eastwest;" parent="CVf682A1SfkwsWrIBAP_-29" vertex="1">
          <mxGeometry y="52" width="220" height="8" as="geometry" />
        </mxCell>
        <mxCell id="CVf682A1SfkwsWrIBAP_-32" value="+ method(type): type" style="text;strokeColor=none;fillColor=none;align=left;verticalAlign=top;spacingLeft=4;spacingRight=4;overflow=hidden;rotatable=0;points=[[0,0.5],[1,0.5]];portConstraint=eastwest;" parent="CVf682A1SfkwsWrIBAP_-29" vertex="1">
          <mxGeometry y="60" width="220" height="26" as="geometry" />
        </mxCell>
        <mxCell id="CVf682A1SfkwsWrIBAP_-33" value="" style="endArrow=block;dashed=1;endFill=0;endSize=12;html=1;entryX=1.013;entryY=0.343;entryDx=0;entryDy=0;entryPerimeter=0;exitX=0.5;exitY=0;exitDx=0;exitDy=0;" parent="1" source="CVf682A1SfkwsWrIBAP_-36" target="CVf682A1SfkwsWrIBAP_-4" edge="1">
          <mxGeometry width="160" relative="1" as="geometry">
            <mxPoint x="520" y="300" as="sourcePoint" />
            <mxPoint x="470" y="250" as="targetPoint" />
          </mxGeometry>
        </mxCell>
        <mxCell id="CVf682A1SfkwsWrIBAP_-35" value="" style="endArrow=block;dashed=1;endFill=0;endSize=12;html=1;exitX=0.5;exitY=0;exitDx=0;exitDy=0;entryX=0;entryY=0.5;entryDx=0;entryDy=0;" parent="1" source="CVf682A1SfkwsWrIBAP_-9" target="CVf682A1SfkwsWrIBAP_-4" edge="1">
          <mxGeometry width="160" relative="1" as="geometry">
            <mxPoint x="-30" y="290" as="sourcePoint" />
            <mxPoint x="220" y="260" as="targetPoint" />
          </mxGeometry>
        </mxCell>
        <mxCell id="CVf682A1SfkwsWrIBAP_-36" value="FluidGpuAnalysisCore" style="swimlane;fontStyle=1;align=center;verticalAlign=top;childLayout=stackLayout;horizontal=1;startSize=26;horizontalStack=0;resizeParent=1;resizeParentMax=0;resizeLast=0;collapsible=1;marginBottom=0;" parent="1" vertex="1">
          <mxGeometry x="470" y="260" width="170" height="50" as="geometry" />
        </mxCell>
        <mxCell id="CVf682A1SfkwsWrIBAP_-37" value="+ create(Params&amp; param): int" style="text;strokeColor=none;fillColor=none;align=left;verticalAlign=top;spacingLeft=4;spacingRight=4;overflow=hidden;rotatable=0;points=[[0,0.5],[1,0.5]];portConstraint=eastwest;" parent="CVf682A1SfkwsWrIBAP_-36" vertex="1">
          <mxGeometry y="26" width="170" height="24" as="geometry" />
        </mxCell>
        <mxCell id="CVf682A1SfkwsWrIBAP_-38" value="FluidGpuNativeDirWithSigmoidCore" style="swimlane;fontStyle=1;align=center;verticalAlign=top;childLayout=stackLayout;horizontal=1;startSize=26;horizontalStack=0;resizeParent=1;resizeParentMax=0;resizeLast=0;collapsible=1;marginBottom=0;" parent="1" vertex="1">
          <mxGeometry x="510" y="450" width="230" height="50" as="geometry" />
        </mxCell>
        <mxCell id="CVf682A1SfkwsWrIBAP_-39" value="+ load_fluid_model(Params&amp; param): int" style="text;strokeColor=none;fillColor=none;align=left;verticalAlign=top;spacingLeft=4;spacingRight=4;overflow=hidden;rotatable=0;points=[[0,0.5],[1,0.5]];portConstraint=eastwest;" parent="CVf682A1SfkwsWrIBAP_-38" vertex="1">
          <mxGeometry y="26" width="230" height="24" as="geometry" />
        </mxCell>
        <mxCell id="CVf682A1SfkwsWrIBAP_-40" value="FluidGpuAnalysisDirWithSigmoidCore" style="swimlane;fontStyle=1;align=center;verticalAlign=top;childLayout=stackLayout;horizontal=1;startSize=26;horizontalStack=0;resizeParent=1;resizeParentMax=0;resizeLast=0;collapsible=1;marginBottom=0;" parent="1" vertex="1">
          <mxGeometry x="510" y="530" width="230" height="50" as="geometry" />
        </mxCell>
        <mxCell id="CVf682A1SfkwsWrIBAP_-41" value="+ load_fluid_model(Params&amp; param): int" style="text;strokeColor=none;fillColor=none;align=left;verticalAlign=top;spacingLeft=4;spacingRight=4;overflow=hidden;rotatable=0;points=[[0,0.5],[1,0.5]];portConstraint=eastwest;" parent="CVf682A1SfkwsWrIBAP_-40" vertex="1">
          <mxGeometry y="26" width="230" height="24" as="geometry" />
        </mxCell>
        <mxCell id="CVf682A1SfkwsWrIBAP_-45" value="" style="endArrow=block;dashed=1;endFill=0;endSize=12;html=1;entryX=0.996;entryY=0.1;entryDx=0;entryDy=0;entryPerimeter=0;exitX=0;exitY=0.25;exitDx=0;exitDy=0;" parent="1" source="CVf682A1SfkwsWrIBAP_-38" target="CVf682A1SfkwsWrIBAP_-24" edge="1">
          <mxGeometry width="160" relative="1" as="geometry">
            <mxPoint x="470" y="520" as="sourcePoint" />
            <mxPoint x="630" y="520" as="targetPoint" />
          </mxGeometry>
        </mxCell>
        <mxCell id="CVf682A1SfkwsWrIBAP_-46" value="" style="endArrow=block;dashed=1;endFill=0;endSize=12;html=1;entryX=0.463;entryY=1;entryDx=0;entryDy=0;entryPerimeter=0;exitX=0.5;exitY=0;exitDx=0;exitDy=0;" parent="1" source="CVf682A1SfkwsWrIBAP_-21" target="CVf682A1SfkwsWrIBAP_-4" edge="1">
          <mxGeometry width="160" relative="1" as="geometry">
            <mxPoint x="310" y="380" as="sourcePoint" />
            <mxPoint x="470" y="380" as="targetPoint" />
          </mxGeometry>
        </mxCell>
        <mxCell id="CVf682A1SfkwsWrIBAP_-47" value="" style="endArrow=block;dashed=1;endFill=0;endSize=12;html=1;exitX=-0.013;exitY=0.125;exitDx=0;exitDy=0;exitPerimeter=0;" parent="1" source="CVf682A1SfkwsWrIBAP_-41" target="CVf682A1SfkwsWrIBAP_-24" edge="1">
          <mxGeometry width="160" relative="1" as="geometry">
            <mxPoint x="310" y="380" as="sourcePoint" />
            <mxPoint x="470" y="380" as="targetPoint" />
          </mxGeometry>
        </mxCell>
        <mxCell id="CVf682A1SfkwsWrIBAP_-49" value="" style="endArrow=block;dashed=1;endFill=0;endSize=12;html=1;entryX=0.879;entryY=1.043;entryDx=0;entryDy=0;entryPerimeter=0;exitX=0;exitY=0.5;exitDx=0;exitDy=0;" parent="1" source="CVf682A1SfkwsWrIBAP_-13" target="CVf682A1SfkwsWrIBAP_-4" edge="1">
          <mxGeometry width="160" relative="1" as="geometry">
            <mxPoint x="310" y="380" as="sourcePoint" />
            <mxPoint x="470" y="380" as="targetPoint" />
          </mxGeometry>
        </mxCell>
        <mxCell id="CVf682A1SfkwsWrIBAP_-50" value="" style="endArrow=block;dashed=1;endFill=0;endSize=12;html=1;entryX=0.275;entryY=1.014;entryDx=0;entryDy=0;entryPerimeter=0;" parent="1" target="CVf682A1SfkwsWrIBAP_-4" edge="1">
          <mxGeometry width="160" relative="1" as="geometry">
            <mxPoint x="180" y="390" as="sourcePoint" />
            <mxPoint x="340" y="390" as="targetPoint" />
          </mxGeometry>
        </mxCell>
      </root>
    </mxGraphModel>
  </diagram>
  <diagram id="kjPCFFOWCF7Z3gIUajxZ" name="Page-2">
    <mxGraphModel dx="1372" dy="545" grid="1" gridSize="10" guides="1" tooltips="1" connect="1" arrows="1" fold="1" page="1" pageScale="1" pageWidth="827" pageHeight="1169" math="0" shadow="0">
      <root>
        <mxCell id="hRNes-pMmSjkm-yJ3H3o-0" />
        <mxCell id="hRNes-pMmSjkm-yJ3H3o-1" parent="hRNes-pMmSjkm-yJ3H3o-0" />
        <mxCell id="hRNes-pMmSjkm-yJ3H3o-2" value="Channel" style="swimlane;fontStyle=1;align=center;verticalAlign=top;childLayout=stackLayout;horizontal=1;startSize=26;horizontalStack=0;resizeParent=1;resizeParentMax=0;resizeLast=0;collapsible=1;marginBottom=0;" parent="hRNes-pMmSjkm-yJ3H3o-1" vertex="1">
          <mxGeometry x="180" y="100" width="290" height="150" as="geometry" />
        </mxCell>
        <mxCell id="hRNes-pMmSjkm-yJ3H3o-3" value="- _id: uint32_t&#xa;- _op: string" style="text;strokeColor=none;fillColor=none;align=left;verticalAlign=top;spacingLeft=4;spacingRight=4;overflow=hidden;rotatable=0;points=[[0,0.5],[1,0.5]];portConstraint=eastwest;" parent="hRNes-pMmSjkm-yJ3H3o-2" vertex="1">
          <mxGeometry y="26" width="290" height="34" as="geometry" />
        </mxCell>
        <mxCell id="hRNes-pMmSjkm-yJ3H3o-4" value="" style="line;strokeWidth=1;fillColor=none;align=left;verticalAlign=middle;spacingTop=-1;spacingLeft=3;spacingRight=3;rotatable=0;labelPosition=right;points=[];portConstraint=eastwest;" parent="hRNes-pMmSjkm-yJ3H3o-2" vertex="1">
          <mxGeometry y="60" width="290" height="8" as="geometry" />
        </mxCell>
        <mxCell id="hRNes-pMmSjkm-yJ3H3o-5" value="+ init(uint32_t id, const char* op): void&#xa;+ deinit(): void&#xa;+ share_to_bus(Bus* bus, const uint64_t log_id): int&#xa;+ id(): unit32_t&#xa;+ op(): string&amp;" style="text;strokeColor=none;fillColor=none;align=left;verticalAlign=top;spacingLeft=4;spacingRight=4;overflow=hidden;rotatable=0;points=[[0,0.5],[1,0.5]];portConstraint=eastwest;" parent="hRNes-pMmSjkm-yJ3H3o-2" vertex="1">
          <mxGeometry y="68" width="290" height="82" as="geometry" />
        </mxCell>
        <mxCell id="hRNes-pMmSjkm-yJ3H3o-6" value="OpChannel" style="swimlane;fontStyle=1;align=center;verticalAlign=top;childLayout=stackLayout;horizontal=1;startSize=26;horizontalStack=0;resizeParent=1;resizeParentMax=0;resizeLast=0;collapsible=1;marginBottom=0;" parent="hRNes-pMmSjkm-yJ3H3o-1" vertex="1">
          <mxGeometry x="180" y="300" width="230" height="120" as="geometry" />
        </mxCell>
        <mxCell id="hRNes-pMmSjkm-yJ3H3o-7" value="- _data: T" style="text;strokeColor=none;fillColor=none;align=left;verticalAlign=top;spacingLeft=4;spacingRight=4;overflow=hidden;rotatable=0;points=[[0,0.5],[1,0.5]];portConstraint=eastwest;" parent="hRNes-pMmSjkm-yJ3H3o-6" vertex="1">
          <mxGeometry y="26" width="230" height="24" as="geometry" />
        </mxCell>
        <mxCell id="hRNes-pMmSjkm-yJ3H3o-8" value="" style="line;strokeWidth=1;fillColor=none;align=left;verticalAlign=middle;spacingTop=-1;spacingLeft=3;spacingRight=3;rotatable=0;labelPosition=right;points=[];portConstraint=eastwest;" parent="hRNes-pMmSjkm-yJ3H3o-6" vertex="1">
          <mxGeometry y="50" width="230" height="8" as="geometry" />
        </mxCell>
        <mxCell id="hRNes-pMmSjkm-yJ3H3o-9" value="+ clear_data(): void&#xa;+ param(): void*&#xa;+ message(): google::protobuf::Message*&#xa;+ data(): T*" style="text;strokeColor=none;fillColor=none;align=left;verticalAlign=top;spacingLeft=4;spacingRight=4;overflow=hidden;rotatable=0;points=[[0,0.5],[1,0.5]];portConstraint=eastwest;" parent="hRNes-pMmSjkm-yJ3H3o-6" vertex="1">
          <mxGeometry y="58" width="230" height="62" as="geometry" />
        </mxCell>
        <mxCell id="hRNes-pMmSjkm-yJ3H3o-10" value="" style="endArrow=block;dashed=1;endFill=0;endSize=12;html=1;exitX=0.461;exitY=-0.027;exitDx=0;exitDy=0;exitPerimeter=0;" parent="hRNes-pMmSjkm-yJ3H3o-1" source="hRNes-pMmSjkm-yJ3H3o-6" target="hRNes-pMmSjkm-yJ3H3o-5" edge="1">
          <mxGeometry width="160" relative="1" as="geometry">
            <mxPoint x="330" y="250" as="sourcePoint" />
            <mxPoint x="490" y="250" as="targetPoint" />
          </mxGeometry>
        </mxCell>
        <mxCell id="hRNes-pMmSjkm-yJ3H3o-11" value="Bus" style="swimlane;fontStyle=1;align=center;verticalAlign=top;childLayout=stackLayout;horizontal=1;startSize=26;horizontalStack=0;resizeParent=1;resizeParentMax=0;resizeLast=0;collapsible=1;marginBottom=0;" parent="hRNes-pMmSjkm-yJ3H3o-1" vertex="1">
          <mxGeometry x="580" y="119" width="310" height="120" as="geometry" />
        </mxCell>
        <mxCell id="hRNes-pMmSjkm-yJ3H3o-12" value="- _op_channels: unordered_map&lt;string, Channel*&gt;" style="text;strokeColor=none;fillColor=none;align=left;verticalAlign=top;spacingLeft=4;spacingRight=4;overflow=hidden;rotatable=0;points=[[0,0.5],[1,0.5]];portConstraint=eastwest;" parent="hRNes-pMmSjkm-yJ3H3o-11" vertex="1">
          <mxGeometry y="26" width="310" height="24" as="geometry" />
        </mxCell>
        <mxCell id="hRNes-pMmSjkm-yJ3H3o-13" value="" style="line;strokeWidth=1;fillColor=none;align=left;verticalAlign=middle;spacingTop=-1;spacingLeft=3;spacingRight=3;rotatable=0;labelPosition=right;points=[];portConstraint=eastwest;" parent="hRNes-pMmSjkm-yJ3H3o-11" vertex="1">
          <mxGeometry y="50" width="310" height="8" as="geometry" />
        </mxCell>
        <mxCell id="hRNes-pMmSjkm-yJ3H3o-14" value="+ regist(const string&amp; op, Channel* channel): int&#xa;+ channel_by_name(const string&amp; op_name): Channel*&#xa;+ clear(): void&#xa;+ size(): size_t" style="text;strokeColor=none;fillColor=none;align=left;verticalAlign=top;spacingLeft=4;spacingRight=4;overflow=hidden;rotatable=0;points=[[0,0.5],[1,0.5]];portConstraint=eastwest;" parent="hRNes-pMmSjkm-yJ3H3o-11" vertex="1">
          <mxGeometry y="58" width="310" height="62" as="geometry" />
        </mxCell>
        <mxCell id="hRNes-pMmSjkm-yJ3H3o-17" value="" style="endArrow=block;endFill=1;html=1;edgeStyle=orthogonalEdgeStyle;align=left;verticalAlign=top;" parent="hRNes-pMmSjkm-yJ3H3o-1" edge="1">
          <mxGeometry x="-1" relative="1" as="geometry">
            <mxPoint x="490" y="500" as="sourcePoint" />
            <mxPoint x="650" y="500" as="targetPoint" />
          </mxGeometry>
        </mxCell>
        <mxCell id="ZgRML9aTI-NSlIsTnFiW-0" value="1" style="endArrow=open;html=1;endSize=12;startArrow=diamondThin;startSize=14;startFill=0;edgeStyle=orthogonalEdgeStyle;align=left;verticalAlign=bottom;exitX=0;exitY=0.5;exitDx=0;exitDy=0;entryX=1.01;entryY=0.912;entryDx=0;entryDy=0;entryPerimeter=0;" parent="hRNes-pMmSjkm-yJ3H3o-1" source="hRNes-pMmSjkm-yJ3H3o-12" target="hRNes-pMmSjkm-yJ3H3o-3" edge="1">
          <mxGeometry x="-1" y="3" relative="1" as="geometry">
            <mxPoint x="510" y="190" as="sourcePoint" />
            <mxPoint x="470" y="190" as="targetPoint" />
          </mxGeometry>
        </mxCell>
      </root>
    </mxGraphModel>
  </diagram>
  <diagram id="7n45awOOu2VGkAdXuein" name="Page-3">
    <mxGraphModel dx="2450" dy="973" grid="0" gridSize="10" guides="1" tooltips="1" connect="1" arrows="1" fold="1" page="1" pageScale="1" pageWidth="827" pageHeight="1169" math="0" shadow="0">
      <root>
        <mxCell id="GTOHrblqyp7rO-I1UCL6-0" />
        <mxCell id="GTOHrblqyp7rO-I1UCL6-1" parent="GTOHrblqyp7rO-I1UCL6-0" />
        <mxCell id="GTOHrblqyp7rO-I1UCL6-2" value="Workflow" style="swimlane;fontStyle=1;align=center;verticalAlign=top;childLayout=stackLayout;horizontal=1;startSize=26;horizontalStack=0;resizeParent=1;resizeParentMax=0;resizeLast=0;collapsible=1;marginBottom=0;" parent="GTOHrblqyp7rO-I1UCL6-1" vertex="1">
          <mxGeometry x="100" y="110" width="300" height="200" as="geometry" />
        </mxCell>
        <mxCell id="GTOHrblqyp7rO-I1UCL6-3" value="- _dag: Dag&#xa;- _type: string&#xa;- _name: string" style="text;strokeColor=none;fillColor=none;align=left;verticalAlign=top;spacingLeft=4;spacingRight=4;overflow=hidden;rotatable=0;points=[[0,0.5],[1,0.5]];portConstraint=eastwest;" parent="GTOHrblqyp7rO-I1UCL6-2" vertex="1">
          <mxGeometry y="26" width="300" height="44" as="geometry" />
        </mxCell>
        <mxCell id="GTOHrblqyp7rO-I1UCL6-4" value="" style="line;strokeWidth=1;fillColor=none;align=left;verticalAlign=middle;spacingTop=-1;spacingLeft=3;spacingRight=3;rotatable=0;labelPosition=right;points=[];portConstraint=eastwest;" parent="GTOHrblqyp7rO-I1UCL6-2" vertex="1">
          <mxGeometry y="70" width="300" height="8" as="geometry" />
        </mxCell>
        <mxCell id="GTOHrblqyp7rO-I1UCL6-5" value="+ init(const Workflow&amp; conf): int&#xa;+ fetch_dag_view(string&amp; srv_name, uint64_t log_id): &#xa;DagView*&#xa;+ deinit(): int&#xa;+ return_dag_view(DagView* view): void&#xa;+ reload(): int&#xa;+ name(): const string&amp;&#xa;+ regist_metric(string&amp; service_name): void" style="text;strokeColor=none;fillColor=none;align=left;verticalAlign=top;spacingLeft=4;spacingRight=4;overflow=hidden;rotatable=0;points=[[0,0.5],[1,0.5]];portConstraint=eastwest;" parent="GTOHrblqyp7rO-I1UCL6-2" vertex="1">
          <mxGeometry y="78" width="300" height="122" as="geometry" />
        </mxCell>
        <mxCell id="GTOHrblqyp7rO-I1UCL6-6" value="Dag" style="swimlane;fontStyle=1;align=center;verticalAlign=top;childLayout=stackLayout;horizontal=1;startSize=26;horizontalStack=0;resizeParent=1;resizeParentMax=0;resizeLast=0;collapsible=1;marginBottom=0;" parent="GTOHrblqyp7rO-I1UCL6-1" vertex="1">
          <mxGeometry x="500" y="110" width="370" height="230" as="geometry" />
        </mxCell>
        <mxCell id="GTOHrblqyp7rO-I1UCL6-7" value="- _dag_name: string&#xa;- _name_nodes: unordered_map&lt;string, DagNode*&gt;&#xa;- _index_nodes: vector&lt;DagNode*&gt;&#xa;- _stages: vector&lt;DagStage*&gt;" style="text;strokeColor=none;fillColor=none;align=left;verticalAlign=top;spacingLeft=4;spacingRight=4;overflow=hidden;rotatable=0;points=[[0,0.5],[1,0.5]];portConstraint=eastwest;" parent="GTOHrblqyp7rO-I1UCL6-6" vertex="1">
          <mxGeometry y="26" width="370" height="64" as="geometry" />
        </mxCell>
        <mxCell id="GTOHrblqyp7rO-I1UCL6-8" value="" style="line;strokeWidth=1;fillColor=none;align=left;verticalAlign=middle;spacingTop=-1;spacingLeft=3;spacingRight=3;rotatable=0;labelPosition=right;points=[];portConstraint=eastwest;" parent="GTOHrblqyp7rO-I1UCL6-6" vertex="1">
          <mxGeometry y="90" width="370" height="8" as="geometry" />
        </mxCell>
        <mxCell id="GTOHrblqyp7rO-I1UCL6-9" value="+ parse_mode(string&amp; mode): EdgeMode&#xa;+ init(const char* path, const char* file, const std::string&amp; name): int&#xa;+ deinit():int&#xa;+ nodes_size(): uint32_t&#xa;+ node_by_id(uint32_t id): DagNode*&#xa;+ node_by_name(string&amp; name): DagNode*&#xa;+ regist_metric(string&amp; service_name): void&#xa;+ name(): string&amp;&#xa;- topo_sort(): int" style="text;strokeColor=none;fillColor=none;align=left;verticalAlign=top;spacingLeft=4;spacingRight=4;overflow=hidden;rotatable=0;points=[[0,0.5],[1,0.5]];portConstraint=eastwest;" parent="GTOHrblqyp7rO-I1UCL6-6" vertex="1">
          <mxGeometry y="98" width="370" height="132" as="geometry" />
        </mxCell>
        <mxCell id="GTOHrblqyp7rO-I1UCL6-10" value="" style="endArrow=block;endFill=1;html=1;edgeStyle=orthogonalEdgeStyle;align=left;verticalAlign=top;" parent="GTOHrblqyp7rO-I1UCL6-1" edge="1">
          <mxGeometry x="-1" relative="1" as="geometry">
            <mxPoint x="400" y="230" as="sourcePoint" />
            <mxPoint x="500" y="230" as="targetPoint" />
          </mxGeometry>
        </mxCell>
        <mxCell id="bSYOggEm9LLszGxLv-ux-0" value="DagNode" style="swimlane;fontStyle=1;align=center;verticalAlign=top;childLayout=stackLayout;horizontal=1;startSize=26;horizontalStack=0;resizeParent=1;resizeParentMax=0;resizeLast=0;collapsible=1;marginBottom=0;" parent="GTOHrblqyp7rO-I1UCL6-1" vertex="1">
          <mxGeometry x="950" y="110" width="270" height="120" as="geometry" />
        </mxCell>
        <mxCell id="bSYOggEm9LLszGxLv-ux-1" value="+ id:unit32_t&#xa;+ stage: unit32_t&#xa;+ name: string&#xa;+ type: string&#xa;+ conf: void*&#xa;+ depends: unordered_map&lt;string, EdgeNode&gt;" style="text;strokeColor=none;fillColor=none;align=left;verticalAlign=top;spacingLeft=4;spacingRight=4;overflow=hidden;rotatable=0;points=[[0,0.5],[1,0.5]];portConstraint=eastwest;" parent="bSYOggEm9LLszGxLv-ux-0" vertex="1">
          <mxGeometry y="26" width="270" height="94" as="geometry" />
        </mxCell>
        <mxCell id="79VPIKqqY2-IEKt6Uk0g-0" value="" style="endArrow=open;html=1;endSize=12;startArrow=diamondThin;startSize=14;startFill=1;edgeStyle=orthogonalEdgeStyle;align=left;verticalAlign=bottom;" parent="GTOHrblqyp7rO-I1UCL6-1" edge="1">
          <mxGeometry x="-1" y="3" relative="1" as="geometry">
            <mxPoint x="870" y="170" as="sourcePoint" />
            <mxPoint x="950" y="170" as="targetPoint" />
          </mxGeometry>
        </mxCell>
        <mxCell id="m4BogXt70L8CHjOsmgC--0" value="DagStage" style="swimlane;fontStyle=1;align=center;verticalAlign=top;childLayout=stackLayout;horizontal=1;startSize=26;horizontalStack=0;resizeParent=1;resizeParentMax=0;resizeLast=0;collapsible=1;marginBottom=0;" parent="GTOHrblqyp7rO-I1UCL6-1" vertex="1">
          <mxGeometry x="950" y="280" width="270" height="80" as="geometry" />
        </mxCell>
        <mxCell id="m4BogXt70L8CHjOsmgC--2" value="" style="endArrow=open;html=1;endSize=12;startArrow=diamondThin;startSize=14;startFill=0;edgeStyle=orthogonalEdgeStyle;align=left;verticalAlign=bottom;" parent="m4BogXt70L8CHjOsmgC--0" edge="1">
          <mxGeometry x="-1" y="-61" relative="1" as="geometry">
            <mxPoint x="130" as="sourcePoint" />
            <mxPoint x="130" y="-50" as="targetPoint" />
            <mxPoint x="-51" y="60" as="offset" />
          </mxGeometry>
        </mxCell>
        <mxCell id="m4BogXt70L8CHjOsmgC--1" value="+ nodes: vector&lt;DagNode*&gt;&#xa;+ name: string&#xa;+ full_name: string&#xa;" style="text;strokeColor=none;fillColor=none;align=left;verticalAlign=top;spacingLeft=4;spacingRight=4;overflow=hidden;rotatable=0;points=[[0,0.5],[1,0.5]];portConstraint=eastwest;" parent="m4BogXt70L8CHjOsmgC--0" vertex="1">
          <mxGeometry y="26" width="270" height="54" as="geometry" />
        </mxCell>
        <mxCell id="m4BogXt70L8CHjOsmgC--3" value="" style="endArrow=open;html=1;endSize=12;startArrow=diamondThin;startSize=14;startFill=1;edgeStyle=orthogonalEdgeStyle;align=left;verticalAlign=bottom;" parent="GTOHrblqyp7rO-I1UCL6-1" target="m4BogXt70L8CHjOsmgC--1" edge="1">
          <mxGeometry x="-1" y="3" relative="1" as="geometry">
            <mxPoint x="870" y="200" as="sourcePoint" />
            <mxPoint x="1030" y="200" as="targetPoint" />
            <Array as="points">
              <mxPoint x="910" y="200" />
              <mxPoint x="910" y="333" />
            </Array>
          </mxGeometry>
        </mxCell>
        <mxCell id="0fiLPqHWna9L3tJ5tJhJ-0" value="Channel" style="swimlane;fontStyle=1;align=center;verticalAlign=top;childLayout=stackLayout;horizontal=1;startSize=26;horizontalStack=0;resizeParent=1;resizeParentMax=0;resizeLast=0;collapsible=1;marginBottom=0;" parent="GTOHrblqyp7rO-I1UCL6-1" vertex="1">
          <mxGeometry x="140" y="750" width="290" height="150" as="geometry" />
        </mxCell>
        <mxCell id="0fiLPqHWna9L3tJ5tJhJ-1" value="- _id: uint32_t&#xa;- _op: string" style="text;strokeColor=none;fillColor=none;align=left;verticalAlign=top;spacingLeft=4;spacingRight=4;overflow=hidden;rotatable=0;points=[[0,0.5],[1,0.5]];portConstraint=eastwest;" parent="0fiLPqHWna9L3tJ5tJhJ-0" vertex="1">
          <mxGeometry y="26" width="290" height="34" as="geometry" />
        </mxCell>
        <mxCell id="0fiLPqHWna9L3tJ5tJhJ-2" value="" style="line;strokeWidth=1;fillColor=none;align=left;verticalAlign=middle;spacingTop=-1;spacingLeft=3;spacingRight=3;rotatable=0;labelPosition=right;points=[];portConstraint=eastwest;" parent="0fiLPqHWna9L3tJ5tJhJ-0" vertex="1">
          <mxGeometry y="60" width="290" height="8" as="geometry" />
        </mxCell>
        <mxCell id="0fiLPqHWna9L3tJ5tJhJ-3" value="+ init(uint32_t id, const char* op): void&#xa;+ deinit(): void&#xa;+ share_to_bus(Bus* bus, const uint64_t log_id): int&#xa;+ id(): unit32_t&#xa;+ op(): string&amp;" style="text;strokeColor=none;fillColor=none;align=left;verticalAlign=top;spacingLeft=4;spacingRight=4;overflow=hidden;rotatable=0;points=[[0,0.5],[1,0.5]];portConstraint=eastwest;" parent="0fiLPqHWna9L3tJ5tJhJ-0" vertex="1">
          <mxGeometry y="68" width="290" height="82" as="geometry" />
        </mxCell>
        <mxCell id="0fiLPqHWna9L3tJ5tJhJ-4" value="OpChannel" style="swimlane;fontStyle=1;align=center;verticalAlign=top;childLayout=stackLayout;horizontal=1;startSize=26;horizontalStack=0;resizeParent=1;resizeParentMax=0;resizeLast=0;collapsible=1;marginBottom=0;" parent="GTOHrblqyp7rO-I1UCL6-1" vertex="1">
          <mxGeometry x="140" y="950" width="230" height="120" as="geometry" />
        </mxCell>
        <mxCell id="0fiLPqHWna9L3tJ5tJhJ-5" value="- _data: T" style="text;strokeColor=none;fillColor=none;align=left;verticalAlign=top;spacingLeft=4;spacingRight=4;overflow=hidden;rotatable=0;points=[[0,0.5],[1,0.5]];portConstraint=eastwest;" parent="0fiLPqHWna9L3tJ5tJhJ-4" vertex="1">
          <mxGeometry y="26" width="230" height="24" as="geometry" />
        </mxCell>
        <mxCell id="0fiLPqHWna9L3tJ5tJhJ-6" value="" style="line;strokeWidth=1;fillColor=none;align=left;verticalAlign=middle;spacingTop=-1;spacingLeft=3;spacingRight=3;rotatable=0;labelPosition=right;points=[];portConstraint=eastwest;" parent="0fiLPqHWna9L3tJ5tJhJ-4" vertex="1">
          <mxGeometry y="50" width="230" height="8" as="geometry" />
        </mxCell>
        <mxCell id="0fiLPqHWna9L3tJ5tJhJ-7" value="+ clear_data(): void&#xa;+ param(): void*&#xa;+ message(): google::protobuf::Message*&#xa;+ data(): T*" style="text;strokeColor=none;fillColor=none;align=left;verticalAlign=top;spacingLeft=4;spacingRight=4;overflow=hidden;rotatable=0;points=[[0,0.5],[1,0.5]];portConstraint=eastwest;" parent="0fiLPqHWna9L3tJ5tJhJ-4" vertex="1">
          <mxGeometry y="58" width="230" height="62" as="geometry" />
        </mxCell>
        <mxCell id="0fiLPqHWna9L3tJ5tJhJ-8" value="" style="endArrow=block;dashed=1;endFill=0;endSize=12;html=1;exitX=0.461;exitY=-0.027;exitDx=0;exitDy=0;exitPerimeter=0;" parent="GTOHrblqyp7rO-I1UCL6-1" source="0fiLPqHWna9L3tJ5tJhJ-4" target="0fiLPqHWna9L3tJ5tJhJ-3" edge="1">
          <mxGeometry width="160" relative="1" as="geometry">
            <mxPoint x="290" y="900" as="sourcePoint" />
            <mxPoint x="450" y="900" as="targetPoint" />
          </mxGeometry>
        </mxCell>
        <mxCell id="0fiLPqHWna9L3tJ5tJhJ-9" value="Bus" style="swimlane;fontStyle=1;align=center;verticalAlign=top;childLayout=stackLayout;horizontal=1;startSize=26;horizontalStack=0;resizeParent=1;resizeParentMax=0;resizeLast=0;collapsible=1;marginBottom=0;" parent="GTOHrblqyp7rO-I1UCL6-1" vertex="1">
          <mxGeometry x="540" y="769" width="310" height="120" as="geometry" />
        </mxCell>
        <mxCell id="0fiLPqHWna9L3tJ5tJhJ-10" value="- _op_channels: unordered_map&lt;string, Channel*&gt;" style="text;strokeColor=none;fillColor=none;align=left;verticalAlign=top;spacingLeft=4;spacingRight=4;overflow=hidden;rotatable=0;points=[[0,0.5],[1,0.5]];portConstraint=eastwest;" parent="0fiLPqHWna9L3tJ5tJhJ-9" vertex="1">
          <mxGeometry y="26" width="310" height="24" as="geometry" />
        </mxCell>
        <mxCell id="0fiLPqHWna9L3tJ5tJhJ-11" value="" style="line;strokeWidth=1;fillColor=none;align=left;verticalAlign=middle;spacingTop=-1;spacingLeft=3;spacingRight=3;rotatable=0;labelPosition=right;points=[];portConstraint=eastwest;" parent="0fiLPqHWna9L3tJ5tJhJ-9" vertex="1">
          <mxGeometry y="50" width="310" height="8" as="geometry" />
        </mxCell>
        <mxCell id="0fiLPqHWna9L3tJ5tJhJ-12" value="+ regist(const string&amp; op, Channel* channel): int&#xa;+ channel_by_name(const string&amp; op_name): Channel*&#xa;+ clear(): void&#xa;+ size(): size_t" style="text;strokeColor=none;fillColor=none;align=left;verticalAlign=top;spacingLeft=4;spacingRight=4;overflow=hidden;rotatable=0;points=[[0,0.5],[1,0.5]];portConstraint=eastwest;" parent="0fiLPqHWna9L3tJ5tJhJ-9" vertex="1">
          <mxGeometry y="58" width="310" height="62" as="geometry" />
        </mxCell>
        <mxCell id="0fiLPqHWna9L3tJ5tJhJ-13" value="1" style="endArrow=open;html=1;endSize=12;startArrow=diamondThin;startSize=14;startFill=0;edgeStyle=orthogonalEdgeStyle;align=left;verticalAlign=bottom;exitX=0;exitY=0.5;exitDx=0;exitDy=0;entryX=1.01;entryY=0.912;entryDx=0;entryDy=0;entryPerimeter=0;" parent="GTOHrblqyp7rO-I1UCL6-1" source="0fiLPqHWna9L3tJ5tJhJ-10" target="0fiLPqHWna9L3tJ5tJhJ-1" edge="1">
          <mxGeometry x="-1" y="3" relative="1" as="geometry">
            <mxPoint x="470" y="840" as="sourcePoint" />
            <mxPoint x="430" y="840" as="targetPoint" />
          </mxGeometry>
        </mxCell>
        <mxCell id="0fiLPqHWna9L3tJ5tJhJ-14" value="ViewNode" style="swimlane;fontStyle=1;align=center;verticalAlign=top;childLayout=stackLayout;horizontal=1;startSize=26;horizontalStack=0;resizeParent=1;resizeParentMax=0;resizeLast=0;collapsible=1;marginBottom=0;" parent="GTOHrblqyp7rO-I1UCL6-1" vertex="1">
          <mxGeometry x="1020" y="491" width="160" height="94" as="geometry" />
        </mxCell>
        <mxCell id="0fiLPqHWna9L3tJ5tJhJ-15" value="+ op: Op*&#xa;+ conf: DagNode*" style="text;strokeColor=none;fillColor=none;align=left;verticalAlign=top;spacingLeft=4;spacingRight=4;overflow=hidden;rotatable=0;points=[[0,0.5],[1,0.5]];portConstraint=eastwest;" parent="0fiLPqHWna9L3tJ5tJhJ-14" vertex="1">
          <mxGeometry y="26" width="160" height="34" as="geometry" />
        </mxCell>
        <mxCell id="0fiLPqHWna9L3tJ5tJhJ-16" value="" style="line;strokeWidth=1;fillColor=none;align=left;verticalAlign=middle;spacingTop=-1;spacingLeft=3;spacingRight=3;rotatable=0;labelPosition=right;points=[];portConstraint=eastwest;" parent="0fiLPqHWna9L3tJ5tJhJ-14" vertex="1">
          <mxGeometry y="60" width="160" height="8" as="geometry" />
        </mxCell>
        <mxCell id="0fiLPqHWna9L3tJ5tJhJ-17" value="+ reset(): void" style="text;strokeColor=none;fillColor=none;align=left;verticalAlign=top;spacingLeft=4;spacingRight=4;overflow=hidden;rotatable=0;points=[[0,0.5],[1,0.5]];portConstraint=eastwest;" parent="0fiLPqHWna9L3tJ5tJhJ-14" vertex="1">
          <mxGeometry y="68" width="160" height="26" as="geometry" />
        </mxCell>
        <mxCell id="0fiLPqHWna9L3tJ5tJhJ-18" value="ViewStage" style="swimlane;fontStyle=1;align=center;verticalAlign=top;childLayout=stackLayout;horizontal=1;startSize=26;horizontalStack=0;resizeParent=1;resizeParentMax=0;resizeLast=0;collapsible=1;marginBottom=0;" parent="GTOHrblqyp7rO-I1UCL6-1" vertex="1">
          <mxGeometry x="750" y="491" width="170" height="94" as="geometry" />
        </mxCell>
        <mxCell id="0fiLPqHWna9L3tJ5tJhJ-19" value="+ nodes: vector&lt;ViewNode*&gt;&#xa;+ full_name: string" style="text;strokeColor=none;fillColor=none;align=left;verticalAlign=top;spacingLeft=4;spacingRight=4;overflow=hidden;rotatable=0;points=[[0,0.5],[1,0.5]];portConstraint=eastwest;" parent="0fiLPqHWna9L3tJ5tJhJ-18" vertex="1">
          <mxGeometry y="26" width="170" height="34" as="geometry" />
        </mxCell>
        <mxCell id="0fiLPqHWna9L3tJ5tJhJ-20" value="" style="line;strokeWidth=1;fillColor=none;align=left;verticalAlign=middle;spacingTop=-1;spacingLeft=3;spacingRight=3;rotatable=0;labelPosition=right;points=[];portConstraint=eastwest;" parent="0fiLPqHWna9L3tJ5tJhJ-18" vertex="1">
          <mxGeometry y="60" width="170" height="8" as="geometry" />
        </mxCell>
        <mxCell id="0fiLPqHWna9L3tJ5tJhJ-21" value="+ debug(): string" style="text;strokeColor=none;fillColor=none;align=left;verticalAlign=top;spacingLeft=4;spacingRight=4;overflow=hidden;rotatable=0;points=[[0,0.5],[1,0.5]];portConstraint=eastwest;" parent="0fiLPqHWna9L3tJ5tJhJ-18" vertex="1">
          <mxGeometry y="68" width="170" height="26" as="geometry" />
        </mxCell>
        <mxCell id="0fiLPqHWna9L3tJ5tJhJ-22" value="DagView" style="swimlane;fontStyle=1;align=center;verticalAlign=top;childLayout=stackLayout;horizontal=1;startSize=26;horizontalStack=0;resizeParent=1;resizeParentMax=0;resizeLast=0;collapsible=1;marginBottom=0;" parent="GTOHrblqyp7rO-I1UCL6-1" vertex="1">
          <mxGeometry x="140" y="450" width="450" height="210" as="geometry" />
        </mxCell>
        <mxCell id="0fiLPqHWna9L3tJ5tJhJ-23" value="- _name: string&#xa;- _full_name: string&#xa;- _view: vector&lt;ViewStage*&gt;&#xa;- _bus: Bus*" style="text;strokeColor=none;fillColor=none;align=left;verticalAlign=top;spacingLeft=4;spacingRight=4;overflow=hidden;rotatable=0;points=[[0,0.5],[1,0.5]];portConstraint=eastwest;" parent="0fiLPqHWna9L3tJ5tJhJ-22" vertex="1">
          <mxGeometry y="26" width="450" height="64" as="geometry" />
        </mxCell>
        <mxCell id="0fiLPqHWna9L3tJ5tJhJ-24" value="" style="line;strokeWidth=1;fillColor=none;align=left;verticalAlign=middle;spacingTop=-1;spacingLeft=3;spacingRight=3;rotatable=0;labelPosition=right;points=[];portConstraint=eastwest;" parent="0fiLPqHWna9L3tJ5tJhJ-22" vertex="1">
          <mxGeometry y="90" width="450" height="8" as="geometry" />
        </mxCell>
        <mxCell id="0fiLPqHWna9L3tJ5tJhJ-25" value="+ init(Dag* dag, string&amp; srv_name, unit64 log_id): int&#xa;+ deinit(): int&#xa;+ execute(uint64_t log_id, IOBufBuilder* debug_os): int&#xa;+ execute_one_stage(ViewStage* vstage, uint64, log_id, IOBufBuilder* debug_os)&#xa;+ set_reuqest_channel(Channel&amp; channel, uint64_t log_id)&#xa;+ get_reponse_channel(uint64 log_id): Channel*&#xa;+ name(): string&amp;" style="text;strokeColor=none;fillColor=none;align=left;verticalAlign=top;spacingLeft=4;spacingRight=4;overflow=hidden;rotatable=0;points=[[0,0.5],[1,0.5]];portConstraint=eastwest;" parent="0fiLPqHWna9L3tJ5tJhJ-22" vertex="1">
          <mxGeometry y="98" width="450" height="112" as="geometry" />
        </mxCell>
        <mxCell id="0fiLPqHWna9L3tJ5tJhJ-31" value="" style="endArrow=open;html=1;endSize=12;startArrow=diamondThin;startSize=14;startFill=1;edgeStyle=orthogonalEdgeStyle;align=left;verticalAlign=bottom;entryX=0.5;entryY=0;entryDx=0;entryDy=0;" parent="0fiLPqHWna9L3tJ5tJhJ-22" target="0fiLPqHWna9L3tJ5tJhJ-9" edge="1">
          <mxGeometry x="-1" y="3" relative="1" as="geometry">
            <mxPoint x="143" y="210" as="sourcePoint" />
            <mxPoint x="383" y="210" as="targetPoint" />
            <Array as="points">
              <mxPoint x="143" y="250" />
              <mxPoint x="555" y="250" />
            </Array>
          </mxGeometry>
        </mxCell>
        <mxCell id="0fiLPqHWna9L3tJ5tJhJ-26" value="" style="endArrow=open;html=1;endSize=12;startArrow=diamondThin;startSize=14;startFill=0;edgeStyle=orthogonalEdgeStyle;align=left;verticalAlign=bottom;" parent="GTOHrblqyp7rO-I1UCL6-1" edge="1">
          <mxGeometry x="-1" y="3" relative="1" as="geometry">
            <mxPoint x="920" y="537.17" as="sourcePoint" />
            <mxPoint x="1020" y="537.17" as="targetPoint" />
            <Array as="points">
              <mxPoint x="1020" y="537.17" />
            </Array>
          </mxGeometry>
        </mxCell>
        <mxCell id="0fiLPqHWna9L3tJ5tJhJ-33" value="1" style="endArrow=open;html=1;endSize=12;startArrow=diamondThin;startSize=14;startFill=1;edgeStyle=orthogonalEdgeStyle;align=left;verticalAlign=bottom;" parent="GTOHrblqyp7rO-I1UCL6-1" edge="1">
          <mxGeometry x="-1" y="3" relative="1" as="geometry">
            <mxPoint x="590" y="537.17" as="sourcePoint" />
            <mxPoint x="750" y="537.17" as="targetPoint" />
          </mxGeometry>
        </mxCell>
        <mxCell id="0fiLPqHWna9L3tJ5tJhJ-34" value="1" style="endArrow=open;html=1;endSize=12;startArrow=diamondThin;startSize=14;startFill=0;edgeStyle=orthogonalEdgeStyle;align=left;verticalAlign=bottom;" parent="GTOHrblqyp7rO-I1UCL6-1" edge="1">
          <mxGeometry x="-1" y="3" relative="1" as="geometry">
            <mxPoint x="1180" y="560" as="sourcePoint" />
            <mxPoint x="1220" y="180" as="targetPoint" />
            <Array as="points">
              <mxPoint x="1280" y="560" />
              <mxPoint x="1280" y="180" />
            </Array>
          </mxGeometry>
        </mxCell>
        <mxCell id="0fiLPqHWna9L3tJ5tJhJ-35" value="Op" style="swimlane;fontStyle=1;align=center;verticalAlign=top;childLayout=stackLayout;horizontal=1;startSize=26;horizontalStack=0;resizeParent=1;resizeParentMax=0;resizeLast=0;collapsible=1;marginBottom=0;" parent="GTOHrblqyp7rO-I1UCL6-1" vertex="1">
          <mxGeometry x="1020" y="760" width="300" height="310" as="geometry" />
        </mxCell>
        <mxCell id="0fiLPqHWna9L3tJ5tJhJ-36" value="- _bus: Bus*&#xa;- _dag: Dag*&#xa;- _id: unit32&#xa;- _pre_node_nanes: vector&lt;string&gt;&#xa;- _name: string&#xa;- _type: string&#xa;- _has_calc: bool&#xa;- _has_init: bool&#xa;- _timer: TimerFlow&#xa;- _engine_name: string" style="text;strokeColor=none;fillColor=none;align=left;verticalAlign=top;spacingLeft=4;spacingRight=4;overflow=hidden;rotatable=0;points=[[0,0.5],[1,0.5]];portConstraint=eastwest;" parent="0fiLPqHWna9L3tJ5tJhJ-35" vertex="1">
          <mxGeometry y="26" width="300" height="154" as="geometry" />
        </mxCell>
        <mxCell id="0fiLPqHWna9L3tJ5tJhJ-37" value="" style="line;strokeWidth=1;fillColor=none;align=left;verticalAlign=middle;spacingTop=-1;spacingLeft=3;spacingRight=3;rotatable=0;labelPosition=right;points=[];portConstraint=eastwest;" parent="0fiLPqHWna9L3tJ5tJhJ-35" vertex="1">
          <mxGeometry y="180" width="300" height="8" as="geometry" />
        </mxCell>
        <mxCell id="0fiLPqHWna9L3tJ5tJhJ-38" value="+ init(Bus* bus, Dag* dag, uint32 id, string&amp; name, &#xa;string&amp; type,Â void* conf, uint64 log_id): int&#xa;+ deinit(): int&#xa;+ process(uint64 log_id, bool debug): int&#xa;+ is_mutable(string&amp; op): bool&#xa;+ mutable_depend_channel(string&amp; op): Channel*&#xa;+ mutable_message(): google::protobuf::Message*&#xa;+ get_request_message(): google::protobuf::Message*" style="text;strokeColor=none;fillColor=none;align=left;verticalAlign=top;spacingLeft=4;spacingRight=4;overflow=hidden;rotatable=0;points=[[0,0.5],[1,0.5]];portConstraint=eastwest;" parent="0fiLPqHWna9L3tJ5tJhJ-35" vertex="1">
          <mxGeometry y="188" width="300" height="122" as="geometry" />
        </mxCell>
        <mxCell id="0fiLPqHWna9L3tJ5tJhJ-39" value="OpWithChannel" style="swimlane;fontStyle=1;align=center;verticalAlign=top;childLayout=stackLayout;horizontal=1;startSize=26;horizontalStack=0;resizeParent=1;resizeParentMax=0;resizeLast=0;collapsible=1;marginBottom=0;" parent="GTOHrblqyp7rO-I1UCL6-1" vertex="1">
          <mxGeometry x="590" y="945" width="300" height="130" as="geometry" />
        </mxCell>
        <mxCell id="0fiLPqHWna9L3tJ5tJhJ-40" value="- _channel_: ChannelType*Â " style="text;strokeColor=none;fillColor=none;align=left;verticalAlign=top;spacingLeft=4;spacingRight=4;overflow=hidden;rotatable=0;points=[[0,0.5],[1,0.5]];portConstraint=eastwest;" parent="0fiLPqHWna9L3tJ5tJhJ-39" vertex="1">
          <mxGeometry y="26" width="300" height="26" as="geometry" />
        </mxCell>
        <mxCell id="0fiLPqHWna9L3tJ5tJhJ-41" value="" style="line;strokeWidth=1;fillColor=none;align=left;verticalAlign=middle;spacingTop=-1;spacingLeft=3;spacingRight=3;rotatable=0;labelPosition=right;points=[];portConstraint=eastwest;" parent="0fiLPqHWna9L3tJ5tJhJ-39" vertex="1">
          <mxGeometry y="52" width="300" height="8" as="geometry" />
        </mxCell>
        <mxCell id="0fiLPqHWna9L3tJ5tJhJ-42" value="+ mutable_channel(): Channel*&#xa;+ get_channel(): Channel*&#xa;+ release_channel(): int&#xa;+ inference(): int" style="text;strokeColor=none;fillColor=none;align=left;verticalAlign=top;spacingLeft=4;spacingRight=4;overflow=hidden;rotatable=0;points=[[0,0.5],[1,0.5]];portConstraint=eastwest;" parent="0fiLPqHWna9L3tJ5tJhJ-39" vertex="1">
          <mxGeometry y="60" width="300" height="70" as="geometry" />
        </mxCell>
        <mxCell id="wExuSWxE0sAYqVd5dELd-3" value="" style="endArrow=block;dashed=1;endFill=0;endSize=12;html=1;exitX=1;exitY=0.5;exitDx=0;exitDy=0;entryX=-0.011;entryY=0.892;entryDx=0;entryDy=0;entryPerimeter=0;" parent="GTOHrblqyp7rO-I1UCL6-1" source="0fiLPqHWna9L3tJ5tJhJ-40" target="0fiLPqHWna9L3tJ5tJhJ-36" edge="1">
          <mxGeometry width="160" relative="1" as="geometry">
            <mxPoint x="860" y="830" as="sourcePoint" />
            <mxPoint x="990" y="822" as="targetPoint" />
          </mxGeometry>
        </mxCell>
        <mxCell id="wExuSWxE0sAYqVd5dELd-7" value="1" style="endArrow=open;html=1;endSize=12;startArrow=diamondThin;startSize=14;startFill=1;edgeStyle=orthogonalEdgeStyle;align=left;verticalAlign=bottom;" parent="GTOHrblqyp7rO-I1UCL6-1" source="0fiLPqHWna9L3tJ5tJhJ-42" edge="1">
          <mxGeometry x="-1" y="3" relative="1" as="geometry">
            <mxPoint x="550" y="1009" as="sourcePoint" />
            <mxPoint x="370" y="1009" as="targetPoint" />
          </mxGeometry>
        </mxCell>
        <mxCell id="wExuSWxE0sAYqVd5dELd-6" value="1" style="endArrow=open;html=1;endSize=12;startArrow=diamondThin;startSize=14;startFill=0;edgeStyle=orthogonalEdgeStyle;align=left;verticalAlign=bottom;entryX=1;entryY=0.5;entryDx=0;entryDy=0;" parent="GTOHrblqyp7rO-I1UCL6-1" source="0fiLPqHWna9L3tJ5tJhJ-36" target="0fiLPqHWna9L3tJ5tJhJ-12" edge="1">
          <mxGeometry x="-1" y="3" relative="1" as="geometry">
            <mxPoint x="990" y="800" as="sourcePoint" />
            <mxPoint x="1010" y="710" as="targetPoint" />
            <Array as="points">
              <mxPoint x="970" y="858" />
              <mxPoint x="970" y="858" />
            </Array>
          </mxGeometry>
        </mxCell>
        <mxCell id="29vp9CVMHI9bp5ixaMb3-1" value="" style="rounded=0;whiteSpace=wrap;html=1;dashed=1;strokeWidth=1;fillColor=none;strokeColor=#9933FF;" parent="GTOHrblqyp7rO-I1UCL6-1" vertex="1">
          <mxGeometry x="120" y="720" width="1240" height="380" as="geometry" />
        </mxCell>
      </root>
    </mxGraphModel>
  </diagram>
  <diagram id="jK4LWCgR71LZoc5-suCT" name="Page-4">
    <mxGraphModel dx="912" dy="489" grid="1" gridSize="10" guides="1" tooltips="1" connect="1" arrows="1" fold="1" page="1" pageScale="1" pageWidth="827" pageHeight="1169" math="0" shadow="0">
      <root>
        <mxCell id="QiwCCYer_z46IQ0Eu5H8-0" />
        <mxCell id="QiwCCYer_z46IQ0Eu5H8-1" parent="QiwCCYer_z46IQ0Eu5H8-0" />
        <mxCell id="QiwCCYer_z46IQ0Eu5H8-2" value="" style="ellipse;whiteSpace=wrap;html=1;aspect=fixed;" vertex="1" parent="QiwCCYer_z46IQ0Eu5H8-1">
          <mxGeometry x="160" y="230" width="30" height="30" as="geometry" />
        </mxCell>
        <mxCell id="QiwCCYer_z46IQ0Eu5H8-3" value="" style="ellipse;whiteSpace=wrap;html=1;aspect=fixed;" vertex="1" parent="QiwCCYer_z46IQ0Eu5H8-1">
          <mxGeometry x="270" y="170" width="30" height="30" as="geometry" />
        </mxCell>
        <mxCell id="QiwCCYer_z46IQ0Eu5H8-4" value="" style="ellipse;whiteSpace=wrap;html=1;aspect=fixed;" vertex="1" parent="QiwCCYer_z46IQ0Eu5H8-1">
          <mxGeometry x="270" y="270" width="30" height="30" as="geometry" />
        </mxCell>
        <mxCell id="QiwCCYer_z46IQ0Eu5H8-6" value="" style="ellipse;whiteSpace=wrap;html=1;aspect=fixed;" vertex="1" parent="QiwCCYer_z46IQ0Eu5H8-1">
          <mxGeometry x="414" y="230" width="30" height="30" as="geometry" />
        </mxCell>
        <mxCell id="QiwCCYer_z46IQ0Eu5H8-10" style="edgeStyle=orthogonalEdgeStyle;rounded=0;orthogonalLoop=1;jettySize=auto;html=1;exitX=1;exitY=0.5;exitDx=0;exitDy=0;entryX=0;entryY=0.5;entryDx=0;entryDy=0;" edge="1" parent="QiwCCYer_z46IQ0Eu5H8-1" source="QiwCCYer_z46IQ0Eu5H8-7" target="QiwCCYer_z46IQ0Eu5H8-2">
          <mxGeometry relative="1" as="geometry" />
        </mxCell>
        <mxCell id="QiwCCYer_z46IQ0Eu5H8-7" value="" style="ellipse;whiteSpace=wrap;html=1;aspect=fixed;" vertex="1" parent="QiwCCYer_z46IQ0Eu5H8-1">
          <mxGeometry x="20" y="230" width="30" height="30" as="geometry" />
        </mxCell>
        <mxCell id="QiwCCYer_z46IQ0Eu5H8-8" value="" style="rounded=0;whiteSpace=wrap;html=1;" vertex="1" parent="QiwCCYer_z46IQ0Eu5H8-1">
          <mxGeometry x="70" y="230" width="60" height="30" as="geometry" />
        </mxCell>
        <mxCell id="QiwCCYer_z46IQ0Eu5H8-9" value="" style="endArrow=classic;html=1;" edge="1" parent="QiwCCYer_z46IQ0Eu5H8-1">
          <mxGeometry width="50" height="50" relative="1" as="geometry">
            <mxPoint x="390" y="280" as="sourcePoint" />
            <mxPoint x="440" y="230" as="targetPoint" />
          </mxGeometry>
        </mxCell>
        <mxCell id="QiwCCYer_z46IQ0Eu5H8-11" value="" style="rounded=0;whiteSpace=wrap;html=1;rotation=-30;" vertex="1" parent="QiwCCYer_z46IQ0Eu5H8-1">
          <mxGeometry x="200" y="200" width="60" height="30" as="geometry" />
        </mxCell>
        <mxCell id="QiwCCYer_z46IQ0Eu5H8-16" value="" style="endArrow=classic;html=1;entryX=-0.067;entryY=0.767;entryDx=0;entryDy=0;entryPerimeter=0;" edge="1" parent="QiwCCYer_z46IQ0Eu5H8-1" target="QiwCCYer_z46IQ0Eu5H8-3">
          <mxGeometry width="50" height="50" relative="1" as="geometry">
            <mxPoint x="190" y="240" as="sourcePoint" />
            <mxPoint x="240" y="190" as="targetPoint" />
          </mxGeometry>
        </mxCell>
      </root>
    </mxGraphModel>
  </diagram>
  <diagram id="tHWhwmMROlVdwhsI_0TM" name="Page-5">
    <mxGraphModel dx="912" dy="489" grid="0" gridSize="10" guides="1" tooltips="1" connect="1" arrows="1" fold="1" page="1" pageScale="1" pageWidth="827" pageHeight="1169" math="0" shadow="0">
      <root>
        <mxCell id="02LKQPvSfv0_Y6RjXbrh-0" />
        <mxCell id="02LKQPvSfv0_Y6RjXbrh-1" parent="02LKQPvSfv0_Y6RjXbrh-0" />
        <mxCell id="02LKQPvSfv0_Y6RjXbrh-2" value="Resource" style="swimlane;fontStyle=1;align=center;verticalAlign=top;childLayout=stackLayout;horizontal=1;startSize=26;horizontalStack=0;resizeParent=1;resizeParentMax=0;resizeLast=0;collapsible=1;marginBottom=0;" parent="02LKQPvSfv0_Y6RjXbrh-1" vertex="1">
          <mxGeometry x="49" y="66" width="320" height="178" as="geometry" />
        </mxCell>
        <mxCell id="02LKQPvSfv0_Y6RjXbrh-3" value="- _config: shared_ptr&lt;ModelConfig&gt;&#xa;- cube_config_path: string&#xa;- cube_quant_bits: int" style="text;strokeColor=none;fillColor=none;align=left;verticalAlign=top;spacingLeft=4;spacingRight=4;overflow=hidden;rotatable=0;points=[[0,0.5],[1,0.5]];portConstraint=eastwest;" parent="02LKQPvSfv0_Y6RjXbrh-2" vertex="1">
          <mxGeometry y="26" width="320" height="44" as="geometry" />
        </mxCell>
        <mxCell id="02LKQPvSfv0_Y6RjXbrh-4" value="" style="line;strokeWidth=1;fillColor=none;align=left;verticalAlign=middle;spacingTop=-1;spacingLeft=3;spacingRight=3;rotatable=0;labelPosition=right;points=[];portConstraint=eastwest;" parent="02LKQPvSfv0_Y6RjXbrh-2" vertex="1">
          <mxGeometry y="70" width="320" height="8" as="geometry" />
        </mxCell>
        <mxCell id="02LKQPvSfv0_Y6RjXbrh-5" value="+ initialize(string&amp; path, string&amp; file): int&#xa;+ general_model_initialize(string&amp; path, string&amp; file): int&#xa;+ reload(): int&#xa;+ thread_initialize(): int&#xa;+ finalize(): int&#xa;+ get_dynamic_resource(): DynamicResource*" style="text;strokeColor=none;fillColor=none;align=left;verticalAlign=top;spacingLeft=4;spacingRight=4;overflow=hidden;rotatable=0;points=[[0,0.5],[1,0.5]];portConstraint=eastwest;" parent="02LKQPvSfv0_Y6RjXbrh-2" vertex="1">
          <mxGeometry y="78" width="320" height="100" as="geometry" />
        </mxCell>
        <mxCell id="02LKQPvSfv0_Y6RjXbrh-6" value="WorkflowManager" style="swimlane;fontStyle=1;align=center;verticalAlign=top;childLayout=stackLayout;horizontal=1;startSize=26;horizontalStack=0;resizeParent=1;resizeParentMax=0;resizeLast=0;collapsible=1;marginBottom=0;" parent="02LKQPvSfv0_Y6RjXbrh-1" vertex="1">
          <mxGeometry x="505" y="92" width="248" height="152" as="geometry" />
        </mxCell>
        <mxCell id="02LKQPvSfv0_Y6RjXbrh-7" value="- unordered_map&lt;string, Workflow*&gt; _map" style="text;strokeColor=none;fillColor=none;align=left;verticalAlign=top;spacingLeft=4;spacingRight=4;overflow=hidden;rotatable=0;points=[[0,0.5],[1,0.5]];portConstraint=eastwest;" parent="02LKQPvSfv0_Y6RjXbrh-6" vertex="1">
          <mxGeometry y="26" width="248" height="23" as="geometry" />
        </mxCell>
        <mxCell id="02LKQPvSfv0_Y6RjXbrh-8" value="" style="line;strokeWidth=1;fillColor=none;align=left;verticalAlign=middle;spacingTop=-1;spacingLeft=3;spacingRight=3;rotatable=0;labelPosition=right;points=[];portConstraint=eastwest;" parent="02LKQPvSfv0_Y6RjXbrh-6" vertex="1">
          <mxGeometry y="49" width="248" height="8" as="geometry" />
        </mxCell>
        <mxCell id="02LKQPvSfv0_Y6RjXbrh-9" value="+ instance(): WorkflowManager&amp;&#xa;+ initialize(string&amp; path, string&amp; file): int&#xa;+ create_item(): Workflow*&#xa;+ item(string&amp; name): Workflow*&#xa;+ reload(): int&#xa;+ finalize(): int" style="text;strokeColor=none;fillColor=none;align=left;verticalAlign=top;spacingLeft=4;spacingRight=4;overflow=hidden;rotatable=0;points=[[0,0.5],[1,0.5]];portConstraint=eastwest;" parent="02LKQPvSfv0_Y6RjXbrh-6" vertex="1">
          <mxGeometry y="57" width="248" height="95" as="geometry" />
        </mxCell>
        <mxCell id="02LKQPvSfv0_Y6RjXbrh-10" value="ServerManager" style="swimlane;fontStyle=1;align=center;verticalAlign=top;childLayout=stackLayout;horizontal=1;startSize=26;horizontalStack=0;resizeParent=1;resizeParentMax=0;resizeLast=0;collapsible=1;marginBottom=0;" parent="02LKQPvSfv0_Y6RjXbrh-1" vertex="1">
          <mxGeometry x="167" y="351" width="324" height="151" as="geometry" />
        </mxCell>
        <mxCell id="02LKQPvSfv0_Y6RjXbrh-11" value="+ _options: brpc::ServerOptions&#xa;+ _server: brpc::ServerÂ &#xa;+ unordered_map&lt;string, Service*&gt; _format_services" style="text;strokeColor=none;fillColor=none;align=left;verticalAlign=top;spacingLeft=4;spacingRight=4;overflow=hidden;rotatable=0;points=[[0,0.5],[1,0.5]];portConstraint=eastwest;" parent="02LKQPvSfv0_Y6RjXbrh-10" vertex="1">
          <mxGeometry y="26" width="324" height="51" as="geometry" />
        </mxCell>
        <mxCell id="02LKQPvSfv0_Y6RjXbrh-12" value="" style="line;strokeWidth=1;fillColor=none;align=left;verticalAlign=middle;spacingTop=-1;spacingLeft=3;spacingRight=3;rotatable=0;labelPosition=right;points=[];portConstraint=eastwest;" parent="02LKQPvSfv0_Y6RjXbrh-10" vertex="1">
          <mxGeometry y="77" width="324" height="8" as="geometry" />
        </mxCell>
        <mxCell id="02LKQPvSfv0_Y6RjXbrh-13" value="+ add_service_by_format(string&amp; format): int&#xa;+ start_and_wait(): int&#xa;- _start_reloader(): int&#xa;- _reload_woker(void* arg): void*" style="text;strokeColor=none;fillColor=none;align=left;verticalAlign=top;spacingLeft=4;spacingRight=4;overflow=hidden;rotatable=0;points=[[0,0.5],[1,0.5]];portConstraint=eastwest;" parent="02LKQPvSfv0_Y6RjXbrh-10" vertex="1">
          <mxGeometry y="85" width="324" height="66" as="geometry" />
        </mxCell>
      </root>
    </mxGraphModel>
  </diagram>
  <diagram id="Gd_Q-aVGhkg8u4wmsZ_6" name="Page-6">
    <mxGraphModel dx="912" dy="489" grid="1" gridSize="10" guides="1" tooltips="1" connect="1" arrows="1" fold="1" page="1" pageScale="1" pageWidth="827" pageHeight="1169" math="0" shadow="0">
      <root>
        <mxCell id="2jFJgl960onLW0SQgkWX-0" />
        <mxCell id="2jFJgl960onLW0SQgkWX-1" parent="2jFJgl960onLW0SQgkWX-0" />
        <mxCell id="PBzout4fUIWJc2kmYAc1-0" value="" style="ellipse;whiteSpace=wrap;html=1;aspect=fixed;" vertex="1" parent="2jFJgl960onLW0SQgkWX-1">
          <mxGeometry x="150" y="460" width="30" height="30" as="geometry" />
        </mxCell>
        <mxCell id="PBzout4fUIWJc2kmYAc1-1" value="" style="ellipse;whiteSpace=wrap;html=1;aspect=fixed;" vertex="1" parent="2jFJgl960onLW0SQgkWX-1">
          <mxGeometry x="280" y="460" width="30" height="30" as="geometry" />
        </mxCell>
        <mxCell id="PBzout4fUIWJc2kmYAc1-2" value="startup_op" style="text;html=1;strokeColor=none;fillColor=none;align=center;verticalAlign=middle;whiteSpace=wrap;rounded=0;" vertex="1" parent="2jFJgl960onLW0SQgkWX-1">
          <mxGeometry x="140" y="500" width="40" height="20" as="geometry" />
        </mxCell>
        <mxCell id="PBzout4fUIWJc2kmYAc1-3" value="Request" style="text;html=1;strokeColor=none;fillColor=none;align=center;verticalAlign=middle;whiteSpace=wrap;rounded=0;" vertex="1" parent="2jFJgl960onLW0SQgkWX-1">
          <mxGeometry x="145" y="420" width="40" height="20" as="geometry" />
        </mxCell>
        <mxCell id="PBzout4fUIWJc2kmYAc1-4" value="infer_op" style="text;html=1;strokeColor=none;fillColor=none;align=center;verticalAlign=middle;whiteSpace=wrap;rounded=0;" vertex="1" parent="2jFJgl960onLW0SQgkWX-1">
          <mxGeometry x="275" y="500" width="40" height="20" as="geometry" />
        </mxCell>
        <mxCell id="PBzout4fUIWJc2kmYAc1-6" value="" style="ellipse;whiteSpace=wrap;html=1;aspect=fixed;" vertex="1" parent="2jFJgl960onLW0SQgkWX-1">
          <mxGeometry x="399" y="460" width="30" height="30" as="geometry" />
        </mxCell>
        <mxCell id="PBzout4fUIWJc2kmYAc1-7" value="infer_op" style="text;html=1;strokeColor=none;fillColor=none;align=center;verticalAlign=middle;whiteSpace=wrap;rounded=0;" vertex="1" parent="2jFJgl960onLW0SQgkWX-1">
          <mxGeometry x="394" y="500" width="40" height="20" as="geometry" />
        </mxCell>
        <mxCell id="PBzout4fUIWJc2kmYAc1-8" value="Response" style="text;html=1;strokeColor=none;fillColor=none;align=center;verticalAlign=middle;whiteSpace=wrap;rounded=0;" vertex="1" parent="2jFJgl960onLW0SQgkWX-1">
          <mxGeometry x="394" y="410" width="40" height="20" as="geometry" />
        </mxCell>
      </root>
    </mxGraphModel>
  </diagram>
</mxfile>
